HIERARCHY
ROOT pelvis
{
  OFFSET 0 100 0
  CHANNELS 6 Xposition Yposition Zposition Zrotation Xrotation Yrotation
  JOINT pelvis_right_femur
  {
    OFFSET -10.78128 -3.44521 -0.5502486
    CHANNELS 3 Zrotation Xrotation Yrotation
    JOINT right_femur_tibia
    {
      OFFSET -0.8047443 -44.0398 -0.1307829
      CHANNELS 3 Zrotation Xrotation Yrotation
      JOINT right_tibia_foot
      {
        OFFSET 3.006224 -47.83518 -5
        CHANNELS 3 Zrotation Xrotation Yrotation
        End Site
        {
          OFFSET 0 -5 15
        }
      }
    }
  }
  JOINT pelvis_left_femur
  {
    OFFSET 10.78128 -3.44521 -0.5502486
    CHANNELS 3 Zrotation Xrotation Yrotation
    JOINT left_femur_tibia
    {
      OFFSET 0.8047443 -44.0398 -0.1307829
      CHANNELS 3 Zrotation Xrotation Yrotation
      JOINT left_tibia_foot
      {
        OFFSET -4.370144 -48.10324 -4.275266
        CHANNELS 3 Zrotation Xrotation Yrotation
        End Site
        {
          OFFSET 0 -5 15
        }
      }
    }
  }
  JOINT pelvis_spine1
  {
    OFFSET 0 6.468898 -3.129235
    CHANNELS 3 Zrotation Xrotation Yrotation
    JOINT spine1
    {
      OFFSET 0 23.15396 4.99043
      CHANNELS 3 Zrotation Xrotation Yrotation
      JOINT spine2
      {
        OFFSET 0 20.79997 -5.064912
        CHANNELS 3 Zrotation Xrotation Yrotation
        JOINT neck
        {
          OFFSET 0 14.38658 9.616178
          CHANNELS 3 Zrotation Xrotation Yrotation
          End Site
          {
            OFFSET 0 20 0
          }
        }
      }
      JOINT right_manubrium
      {
        OFFSET -5.722621 16.35077 3.967754
        CHANNELS 3 Zrotation Xrotation Yrotation
        JOINT right_clavicle
        {
          OFFSET -13.16364 1.694482 -4.693211
          CHANNELS 3 Zrotation Xrotation Yrotation
          JOINT right_humerus
          {
            OFFSET -28.5034 -0.3100689 -2.792744
            CHANNELS 3 Zrotation Xrotation Yrotation
            JOINT right_radius
            {
              OFFSET -25.15693 0.02248979 -1.271978
              CHANNELS 3 Zrotation Xrotation Yrotation
              End Site
              {
                OFFSET -15 0 0
              }
            }
          }
        }
      }
      JOINT left_manubrium
      {
        OFFSET 5.722621 16.35077 3.967754
        CHANNELS 3 Zrotation Xrotation Yrotation
        JOINT left_clavicle
        {
          OFFSET 13.16364 1.694482 -4.693211
          CHANNELS 3 Zrotation Xrotation Yrotation
          JOINT left_humerus
          {
            OFFSET 29.39168 -1.063119 -2.237045
            CHANNELS 3 Zrotation Xrotation Yrotation
            JOINT left_radius
            {
              OFFSET 24.59957 -0.9528479 0.9047498
              CHANNELS 3 Zrotation Xrotation Yrotation
              End Site
              {
                OFFSET 15 -0 -0
              }
            }
          }
        }
      }
    }
  }
}
MOTION
Frames: 15
Frame Time: 0.0416666666667
0 103.5113 0 0.3650036 0.2182542 -0.1459606 4.070061 -15.82986 10.5375 -0 36.00621 -0 -5.667559 -16.64934 -3.590744 -6.942422 8.309391 -21.314 -0 4.915459 -0 8.456882 -18.57235 27.96671 -3.351429 -5.138529 5.829249 2.590358 10.3763 -8.747303 1.227026 21.1538 6.214566 2.483173 -25.36107 9.440168 6.661988 -20.52398 11.67006 84.93376 34.72447 -19.17057 -0 0 18.18013 -8.033651 9.572264 3.018449 8.371843 -21.8397 1.394997 -94.66474 20.81584 22.51653 0 0 -11.19153 14.47019 18.87493 -3.123739
0.3535516 103.4221 1.689927 0.08937451 0.4535809 -0.1881711 4.536074 -18.68852 9.86106 -0 35.57668 -0 -5.837109 -15.2361 -3.390809 -6.650411 9.048352 -20.87582 -0 5.445332 -0 8.075059 -18.9542 26.67874 -3.267455 -4.464714 5.219846 2.682489 10.12698 -8.646557 1.227308 21.19856 6.426682 2.707743 -25.15693 9.397505 6.787472 -19.85993 11.77452 84.86722 34.60172 -19.18224 -0 0 17.04731 -8.277875 9.633696 3.481 8.192726 -21.84915 0.9114024 -93.99958 21.35552 21.5622 0 0 -12.45995 14.16581 18.90776 -2.672573
0.6682264 103.2795 3.665084 -0.4739757 1.680588 -0.1061584 5.677059 -22.45708 9.676396 -0 31.49649 -0 -6.035242 -14.00428 -2.85632 -6.193617 10.11791 -20.78804 -0 6.166668 -0 6.95116 -20.14487 25.38092 -3.076086 -3.945678 4.83531 3.104971 9.710776 -8.761313 1.351316 20.73374 6.722719 3.005108 -26.08286 9.775283 6.662773 -19.40497 11.46675 84.78591 34.80266 -19.59858 -0 0 16.9518 -7.563063 9.668347 3.315243 8.370685 -21.68446 1.062323 -94.25894 22.22626 21.37444 0 0 -12.89631 13.48734 18.13333 -1.900964
0.9538856 103.0937 5.631741 -0.6296453 2.208108 -0.007485213 6.004519 -22.24426 9.933684 -0 29.07875 -0 -6.110955 -14.44513 -2.80998 -6.026944 10.49066 -21.36917 -0 6.51683 -0 5.214221 -21.11503 24.93136 -3.031755 -4.117828 4.903403 3.315013 9.354483 -8.867216 1.459006 20.5062 6.738615 3.064961 -26.76077 10.00172 6.441391 -19.4959 11.01257 84.67416 34.77367 -19.95164 -0 0 18.02639 -6.799047 9.552008 2.79363 8.472037 -21.28501 1.484525 -95.63697 23.79315 22.67814 0 0 -11.89852 11.22422 18.06602 0.5407673
1.203604 102.8403 7.982769 -1.150795 3.021557 0.2419146 6.95213 -26.00451 9.408093 -0 26.07485 -0 -6.358257 -12.56569 -2.46575 -5.552756 11.49604 -20.82966 -0 7.742276 -0 3.92355 -22.0195 23.08826 -2.830174 -3.365161 4.309046 3.627925 8.934896 -8.866743 1.538805 20.23205 6.987119 3.357973 -27.1703 10.12691 6.387523 -18.81104 10.89762 84.64612 34.74453 -20.20262 -0 0 17.20867 -6.688453 9.634092 3.071458 8.40326 -21.16064 1.245366 -95.3363 24.64405 22.01649 0 0 -12.98231 10.25624 17.50631 1.659947
1.430374 102.5055 10.62328 -1.449197 3.24065 0.5489135 7.330645 -28.35769 8.705073 -0 24.41138 -0 -6.603361 -11.01456 -2.313092 -5.234434 12.30909 -20.23415 -0 8.737114 -0 2.757706 -22.59255 21.49195 -2.682923 -2.751011 3.804271 3.778423 8.673301 -8.841122 1.520647 20.17492 7.175394 3.556057 -27.21869 10.0573 6.299708 -18.30376 10.91295 84.83507 34.50431 -20.46445 -0 0 16.25372 -7.025754 9.66821 3.517294 8.163564 -21.16216 0.7669832 -94.83827 25.473 21.35395 0 0 -14.27666 8.986555 17.20734 3.123497
1.645315 101.9403 14.17781 -1.969471 3.423118 0.9845444 7.752704 -34.09657 6.547497 -0 20.04339 -0 -7.211199 -6.303686 -1.602112 -4.794896 13.89446 -17.53055 -0 10.67977 -0 2.205102 -23.16782 18.52797 -2.225382 -1.331117 2.992269 3.933863 8.738901 -8.830727 1.354997 19.93332 7.590175 3.815049 -27.34055 9.865694 5.563043 -17.53086 11.28157 86.34144 33.60113 -21.27138 -0 0 12.96481 -8.787244 9.672755 4.903902 7.830615 -22.12958 -0.5403655 -91.54962 24.06556 17.87895 0 0 -19.09209 9.968423 15.61342 2.107671
1.863 101.016 18.65904 -1.965577 2.780495 1.382144 6.890439 -37.03326 3.477889 -0 14.66395 -0 -7.829957 -1.978711 -0.9292338 -4.804555 15.41544 -14.41153 -0 12.02497 -0 1.769708 -23.5789 16.10903 -1.812263 -0.4009975 2.674577 3.809161 9.117581 -8.822084 1.085782 19.88867 7.833013 3.764026 -27.29663 9.528267 3.96874 -17.41777 11.57508 88.94288 31.74326 -22.56235 -0 0 9.671749 -11.28189 9.282679 6.311634 7.462145 -23.55588 -2.052578 -87.95325 21.76451 14.38242 0 0 -24.84995 10.87893 13.76823 1.056046
2.047528 99.46337 24.54209 -0.9902516 0.8645184 1.695778 4.350941 -36.20056 -1.781372 -0 4.864226 -0 -8.711119 3.194978 -0.3219395 -5.619377 17.89811 -9.798102 -0 12.95418 -0 1.064153 -24.13987 13.68609 -1.392609 -0.1877282 3.006404 3.187884 9.730149 -8.754994 0.7224312 20.2763 7.601869 3.011907 -26.82644 8.853395 0.06894464 -18.12176 11.50615 94.27186 27.59006 -25.06092 -0 0 5.28737 -15.13431 7.770678 7.63647 7.012561 -25.92173 -4.052562 -82.96125 17.54622 9.892072 0 0 -34.18424 11.70157 11.3079 -0.3526432
2.141077 97.73994 31.48553 0.1361248 -1.265731 2.107383 3.167214 -30.71159 -4.660055 0 -0.8520744 0 -9.933676 6.222079 -0.6901506 -6.378061 20.29585 -7.064649 -0 14.29903 -0 -0.8893677 -24.15029 12.42845 -0.9965869 -1.193289 3.407377 2.467148 9.830315 -8.702634 0.6716906 21.21461 6.643977 1.869015 -25.95974 8.154602 -3.821783 -18.77496 10.82718 98.7823 23.42899 -26.96302 -0 0 2.948723 -17.27261 5.983084 7.198856 6.72581 -27.13916 -4.894894 -80.65273 15.45592 7.980761 0 0 -38.88576 10.90518 11.14107 -0.5699854
2.099092 97.03274 38.74956 -0.7329014 -1.020145 2.569765 5.905385 -26.4981 -2.170263 -0 4.145416 -0 -11.5845 6.313409 -1.696443 -5.369594 21.08954 -7.802613 -0 20.61825 -0 -4.196063 -21.28802 11.5066 0.1273352 -2.352489 2.796193 2.566038 9.248623 -8.969982 0.9485555 21.59526 5.824031 1.4052 -25.92118 8.009464 -4.071241 -18.02066 10.36882 99.03973 23.48591 -27.36486 -0 0 3.9101 -15.3388 5.751962 5.113133 6.433713 -25.70463 -3.798647 -83.04827 17.34839 10.27662 0 0 -33.12695 9.660446 13.1385 -0.3737119
2.15567 97.73542 45.34683 -3.061089 1.824691 2.857955 9.51553 -26.87489 3.418529 -0 14.19804 -0 -11.16073 1.101107 -1.866825 -3.751592 17.2142 -10.51376 -0 30.68991 -0 -5.265895 -14.94574 11.11838 1.378162 -1.942773 2.160866 3.353735 9.130003 -9.28782 0.7419499 20.29513 6.946093 2.513342 -27.00936 8.82111 0.5309401 -16.80265 11.02554 94.68906 29.6865 -25.99619 -0 0 6.811473 -11.28947 8.002606 4.566318 5.663989 -23.13702 -2.447534 -87.35273 20.31738 14.79944 0 0 -24.48221 9.721254 12.3726 0.1909859
2.483812 98.92313 51.51371 -3.604986 2.723148 2.712744 9.939057 -24.5253 6.224948 -0 18.07868 -0 -9.518819 -4.928117 -1.440845 -3.663005 11.04076 -11.38751 -0 40.96406 -0 -4.338412 -9.520677 11.5859 1.62561 -1.003547 2.968015 3.420401 9.861819 -9.117973 0.2877578 19.34842 8.208454 3.365489 -27.15048 9.465681 3.562655 -16.79128 11.73634 92.18319 34.6613 -24.59533 -0 0 8.276107 -9.61438 9.835533 5.364593 4.966793 -22.17794 -1.95024 -88.59456 20.78223 17.03832 0 0 -22.44049 10.72425 9.215705 0.2473851
2.884938 100.1632 57.56554 -2.833274 1.347431 2.234943 8.667207 -19.0433 5.865327 -0 17.17824 -0 -9.104459 -7.712844 -0.9900356 -3.75434 5.016867 -10.73049 -0 49.72495 -0 -3.804289 -6.784878 12.11759 1.198263 -0.4460607 4.227361 3.013562 10.67925 -8.586785 0.1326507 19.81963 8.193381 3.375152 -26.3282 9.229997 3.819612 -17.27343 12.16052 91.81068 35.5114 -23.66608 -0 0 8.572167 -10.24364 10.32688 5.809061 4.685525 -22.18579 -1.955616 -88.54075 20.16171 17.65557 0 0 -21.83408 11.65564 8.053303 -0.700461
3.243354 101.4144 63.44472 -1.846405 -0.1568251 1.82677 7.35751 -12.83657 4.604 -0 14.86179 -0 -9.148748 -8.94004 -0.41583 -3.439646 -1.349445 -9.822706 -0 55.3994 -0 -3.983843 -5.306484 12.07941 0.5352481 -0.06654145 5.346238 2.620992 11.07074 -7.851432 0.1221027 20.76501 7.626147 3.211986 -25.32847 8.473176 3.665813 -17.6716 12.49376 90.84276 35.13559 -22.18298 -0 0 9.211082 -11.53401 10.50974 6.347456 4.545322 -21.94775 -2.045595 -88.93888 20.14957 18.54934 0 0 -20.32768 11.43231 8.432819 -0.7024842
